<?xml version="1.0" encoding="UTF-8" standalone="no"?>
<svg
   xmlns:dc="http://purl.org/dc/elements/1.1/"
   xmlns:cc="http://creativecommons.org/ns#"
   xmlns:rdf="http://www.w3.org/1999/02/22-rdf-syntax-ns#"
   xmlns:svg="http://www.w3.org/2000/svg"
   xmlns="http://www.w3.org/2000/svg"
   xmlns:sodipodi="http://sodipodi.sourceforge.net/DTD/sodipodi-0.dtd"
   xmlns:inkscape="http://www.inkscape.org/namespaces/inkscape"
   inkscape:version="1.0 (4035a4f, 2020-05-01)"
   sodipodi:docname="logo.svg"
   version="1.1"
   id="svg2"
   xml:space="preserve"
   width="1801.72"
   height="352.70667"
   viewBox="0 0 1801.72 352.70667"><sodipodi:namedview
     inkscape:current-layer="svg2"
     inkscape:window-maximized="1"
     inkscape:window-y="23"
     inkscape:window-x="0"
     inkscape:cy="396.85333"
     inkscape:cx="1026.2163"
     inkscape:zoom="0.53156437"
     showgrid="false"
     id="namedview52"
     inkscape:window-height="1035"
     inkscape:window-width="1920"
     inkscape:pageshadow="2"
     inkscape:pageopacity="0"
     guidetolerance="10"
     gridtolerance="10"
     objecttolerance="10"
     borderopacity="1"
     bordercolor="#666666"
     pagecolor="#ffffff" /><metadata
     id="metadata8"><rdf:RDF><cc:Work
         rdf:about=""><dc:format>image/svg+xml</dc:format><dc:type
           rdf:resource="http://purl.org/dc/dcmitype/StillImage" /><dc:title></dc:title></cc:Work></rdf:RDF></metadata><defs
     id="defs6"><clipPath
       clipPathUnits="userSpaceOnUse"
       id="clipPath18"><path
         d="M 0,595.28 H 1547.793 V 0 H 0 Z"
         id="path16" /></clipPath></defs><g
     id="g10"
     transform="matrix(1.3333333,0,0,-1.3333333,-130.86279,573.20657)"><g
       id="g12"><g
         id="g14"
         clip-path="url(#clipPath18)"><g
           id="g20"
           transform="translate(1191.7993,274.1706)"><path
             d="m 0,0 c -5.723,-6.247 -11.686,-8.914 -19.936,-8.914 -8.252,0 -14.214,2.665 -19.934,8.91 -5.95,6.493 -8.843,14.291 -8.843,23.836 0,9.572 2.908,17.424 8.893,24.008 5.715,6.288 11.663,8.97 19.884,8.97 8.221,0 14.167,-2.683 19.884,-8.971 C 5.933,41.26 8.841,33.407 8.841,23.832 8.841,14.287 5.949,6.491 0.001,0 Z m -19.936,65.665 c -10.675,0 -19.076,-3.772 -26.436,-11.87 -7.429,-8.172 -11.196,-18.253 -11.196,-29.963 0,-11.696 3.756,-21.728 11.167,-29.816 7.365,-8.039 15.774,-11.783 26.465,-11.783 10.691,0 19.101,3.746 26.465,11.785 7.409,8.088 11.165,18.12 11.165,29.814 0,11.712 -3.765,21.794 -11.194,29.963 -7.36,8.098 -15.761,11.87 -26.436,11.87"
             style="fill:#253b7d;fill-opacity:1;fill-rule:nonzero;stroke:none"
             id="path22" /></g><g
           id="g24"
           transform="translate(1331.2583,312.1657)"><path
             d="m 0,0 v 15.549 h 1.124 c 6.75,0 10.73,-0.778 12.882,-1.43 1.283,-0.388 2.185,-1.503 2.302,-2.842 0.111,-1.286 0.174,-2.667 0.174,-3.788 0,-2.046 -0.154,-3.487 -0.485,-4.538 V 2.95 C 15.653,1.858 14.768,1.048 13.628,0.783 12.089,0.426 9.317,0 4.856,0 Z m 21.527,-5.128 c 2.492,2.808 3.809,7.753 3.809,14.301 0,7.61 -2.229,10.05 -3.902,11.222 l -0.002,0.001 c -2.145,1.497 -7.634,4.006 -20.308,4.006 H -8.854 V -8.854 h 13.71 c 12.387,0 15.891,2.851 16.671,3.726"
             style="fill:#253b7d;fill-opacity:1;fill-rule:nonzero;stroke:none"
             id="path26" /></g><g
           id="g28"
           transform="translate(889.7896,317.8972)"><path
             d="M 0,0 8.207,11.838 8.32,11.757 c 0.237,-0.172 0.484,-0.332 0.739,-0.481 l 3.468,-2.021 c 0.804,-0.458 1.909,-1.236 3.077,-2.059 4.468,-3.15 10.587,-7.463 20.287,-9.649 l 0.263,-0.056 c 2.133,-0.433 4.299,-0.726 6.817,-0.924 l 0.173,-0.014 -0.05,-0.164 c -2.507,-8.472 -5.453,-19.978 -5.988,-33.875 l -0.037,-0.091 c -0.498,-0.521 -0.973,-1.066 -1.411,-1.621 l -0.046,-0.038 c -2.884,-1.505 -5.345,-3.561 -7.317,-6.107 l -0.211,-0.272 -0.037,0.343 c -1.794,15.841 -8.146,28.727 -18.88,38.296 -2.75,2.449 -5.794,4.77 -9.047,6.898 z m 372.925,-52.816 c -4.619,-12.994 -12.197,-24.695 -22.521,-34.778 -18.502,-18.063 -41.53,-27.223 -68.448,-27.223 -26.921,0 -49.949,9.16 -68.449,27.223 -18.572,18.136 -27.99,40.953 -27.99,67.817 0,13.509 2.442,26.178 7.259,37.658 l 0.462,1.101 -3.854,0.344 -0.144,0.003 -0.034,-0.002 c -0.466,-0.025 -1.358,-0.329 -4.553,-1.817 -3.203,-1.487 -7.187,-3.338 -12.251,-4.174 -2.681,-0.401 -5.483,-0.596 -8.562,-0.596 -4.517,0.003 -8.953,0.428 -12.892,0.804 -3.293,0.314 -6.402,0.611 -8.974,0.611 -0.884,0 -1.63,-0.028 -2.278,-0.085 l -0.291,-0.025 -0.219,-0.196 C 135.605,10.621 131.747,8.602 127.394,7.676 L 127.021,7.597 126.823,7.27 C 124.828,3.944 122.199,1.672 120.28,0.013 l -0.428,-0.369 c -2.177,-1.935 -2.405,-2.137 -2.415,-3.465 0,-0.145 0.012,-0.51 0.088,-1.14 l 0.762,-6.111 -5.271,-3.352 c -3.794,-2.297 -7.737,-2.857 -10.904,-3.307 l -1.675,-0.247 -0.048,-0.701 c -0.467,-6.828 -1.512,-12.923 -2.634,-19.082 l -0.168,-0.925 0.934,-0.102 c 1.643,-0.182 3.029,-0.303 4.447,-0.303 1.029,0 1.821,0.039 2.643,0.134 l 8.65,0.943 1.9,-8.523 c 2.34,-10.715 3.479,-20.219 3.484,-29.05 -0.007,-12.15 -2.251,-22.878 -6.67,-31.885 l -2.895,-5.919 -6.611,0.503 c -1.928,0.158 -4.084,0.229 -6.782,0.229 -3.465,0 -6.975,-0.125 -10.691,-0.255 l -0.186,-0.007 c -3.706,-0.13 -7.537,-0.263 -11.323,-0.263 -11.767,0.046 -23.758,1.192 -31.719,9.207 l -2.493,2.539 -0.676,7.519 c -0.681,6.992 -1.454,14.921 -1.454,22.152 l 0.006,0.97 -0.382,0.264 c -3.277,2.267 -5.257,6.22 -5.165,10.327 10e-4,0.205 0.008,0.425 0.021,0.739 -0.013,0.256 -0.018,0.506 -0.016,0.768 -0.066,5.388 3.4,10.329 8.626,12.294 l 0.287,0.108 0.158,0.263 c 0.945,1.589 2.267,2.995 3.822,4.067 l 0.374,0.258 0.004,0.455 c 0.127,17.864 4.407,31.289 8.546,44.272 l 0.59,1.848 -1.118,0.074 c -1.455,0.097 -2.982,0.141 -4.228,0.178 -3.601,0.105 -7.681,0.223 -11.746,1.047 -8.07,1.817 -13.144,5.394 -17.257,8.293 -1.33,0.938 -2.587,1.823 -3.739,2.484 l -3.464,2.016 -1.052,3.779 c -0.598,2.102 -1.055,4.086 -1.396,6.064 L 10.649,30.908 -10.082,0.99 -19.061,7.794 c -12.172,9.23 -24.74,13.911 -37.351,13.911 -3.423,0 -6.016,-0.643 -7.497,-1.861 -0.87,-0.719 -1.314,-1.395 -1.314,-3.099 0,-0.906 0.214,-1.424 1.536,-2.289 1.146,-0.75 6.429,-3.578 26.311,-8.468 17.129,-4.221 30.806,-10.807 40.651,-19.574 10.914,-9.727 16.449,-23.666 16.449,-41.43 0,-17.92 -6.848,-32.689 -20.353,-43.895 -12.904,-10.709 -29.789,-16.139 -50.182,-16.139 -27.15,0 -52.01,9.654 -73.89,28.695 l -1.45,1.261 v -28.09 h -127.536 v 57.36 l -1.69,0.319 c -4.674,-11.916 -11.913,-22.712 -21.514,-32.089 -18.502,-18.063 -41.531,-27.223 -68.449,-27.223 -26.92,0 -49.95,9.16 -68.45,27.223 -10.749,10.497 -18.506,22.7 -23.055,36.276 l -0.335,1.001 -11.972,-6.693 0.746,-2.441 -7.092,-21.507 -11.144,-1.662 -0.19,-2.713 -13.882,-17.594 -11.154,2.047 -1.069,-2.395 -19.099,-11.826 -9.757,5.772 -1.801,-1.887 -22.183,-4.603 -6.93,8.831 -2.456,-1.191 -22.324,3.243 -3.61,10.673 -2.606,-0.313 -20.099,10.808 0.58,11.135 -2.728,0.67 -15.014,16.843 4.024,10.545 -2.15,1.436 -8.421,21.085 7.533,8.302 -1.617,2.155 -0.677,22.553 9.871,5.517 -0.562,1.964 h -40.564 v -131.621 h -57.991 V 18.437 h -46.208 v 53.09 H -607.32 V 40.251 l 12.399,1.876 0.137,2.62 14.044,17.79 11.017,-2.245 1.063,2.434 19.245,11.913 9.604,-5.879 1.832,1.922 22.195,4.627 6.929,-8.844 2.424,1.191 22.209,-3.224 3.844,-10.684 2.564,0.269 19.857,-10.673 -0.217,-11.276 2.523,-0.587 15.387,-17.262 3.046,-4.009 0.765,2.639 c 4.598,13.155 12.222,24.995 22.662,35.188 18.501,18.065 41.531,27.224 68.451,27.224 26.919,0 49.948,-9.159 68.449,-27.224 9.6,-9.373 16.839,-20.169 21.514,-32.086 l 1.69,0.32 v 55.256 h 57.992 V -59.159 h 69.544 v -6.14 l 25.971,31.837 8.407,-7.37 h 10e-4 c 15.473,-13.554 29.49,-20.427 41.661,-20.427 4.2,0 7.397,0.738 9.25,2.139 0.967,0.732 1.427,1.375 1.427,3.055 0,1.4 -0.328,2.017 -1.53,2.871 -1.32,0.939 -5.946,3.506 -20.346,7.064 -15.635,3.717 -28.435,8.512 -38.04,14.252 l -0.002,-0.004 -0.55,0.335 c -2.703,1.647 -5.178,3.392 -7.359,5.187 -11.36,9.347 -17.12,23.614 -17.12,42.404 0,18.708 7.253,34.073 20.975,44.436 12.985,9.808 29.188,14.781 48.161,14.781 12.032,0 24.201,-2.08 36.171,-6.183 11.795,-4.044 22.302,-9.845 31.228,-17.242 l 0.904,-0.748 0.461,1.077 c 1.312,3.067 3.047,6.138 5.163,9.129 l 2.066,2.934 3.497,0.889 c 1.5,0.376 3.078,1.19 4.922,2.141 2.514,1.298 5.644,2.912 9.624,3.917 l 2.608,0.665 2.545,-0.771 c 5.328,-1.579 11.538,-2.315 19.543,-2.315 5.712,0 11.742,0.383 17.642,0.757 5.898,0.375 11.998,0.762 17.859,0.762 l 0.427,0.001 c 0.473,0 0.938,-0.005 1.514,-0.019 3.704,-0.135 6.567,-1.243 8.459,-1.974 l 0.526,-0.207 0.347,0.172 c 1.488,0.736 3.535,1.625 6.164,1.95 l 0.471,0.044 c 0.618,0.043 1.148,0.064 1.66,0.064 3.377,-0.035 5.877,-0.702 7.841,-1.226 0.302,-0.081 0.646,-0.171 0.908,-0.232 l 0.21,-0.05 3.128,0.815 3.296,-1.531 c 2.198,-1.068 4.025,-2.542 5.587,-4.507 l 0.278,-0.346 0.442,0.017 c 4.4,0.173 8.086,0.256 11.597,0.26 17.339,0 29.976,-2.191 42.259,-7.329 l 6.998,-2.907 -0.544,-3.636 0.534,-0.294 c 2.825,-1.558 4.887,-3.643 6.131,-6.197 l 0.572,-1.179 0.869,0.98 c 1.61,1.817 3.196,3.484 4.847,5.095 18.498,18.065 41.526,27.224 68.447,27.224 26.92,0 49.948,-9.159 68.448,-27.224 10.324,-10.08 17.902,-21.781 22.521,-34.776 l 1.7,0.293 v 57.973 h 68.435 c 27.56,0 48.326,-5.772 61.716,-17.156 13.906,-11.824 20.954,-29.665 20.954,-53.028 0,-23.509 -7.3,-41.231 -21.698,-52.673 -13.652,-10.848 -34.01,-16.348 -60.506,-16.348 h -10.911 v -45.506 h -57.99 v 60.076 z M 510.514,61.115 C 495.475,73.899 472.779,80.381 443.06,80.381 h -68.296 c -4.958,0 -8.993,-4.034 -8.993,-8.993 V 44.192 l -0.248,0.312 c -2.716,3.413 -5.721,6.733 -8.931,9.867 -20.214,19.737 -45.325,29.745 -74.636,29.745 -28.244,0 -52.615,-9.303 -72.434,-27.653 l -0.149,-0.137 -0.075,0.188 c -0.906,2.268 -2.648,4.034 -4.903,4.973 l -6.897,2.864 c -13.414,5.611 -27.067,8.006 -45.653,8.006 -2.617,-0.002 -5.326,-0.047 -8.286,-0.137 l -0.055,-0.002 -0.041,0.038 c -1.696,1.514 -3.598,2.788 -5.665,3.793 l -3.383,1.573 c -1.86,0.864 -4.066,1.062 -6.052,0.545 l -0.862,-0.224 -0.034,0.008 c -1.82,0.465 -4.573,1.075 -7.957,1.188 l -0.034,0.267 -1.746,-0.11 v -0.151 c -0.46,-0.013 -0.927,-0.037 -1.439,-0.072 l -0.228,-0.014 c -0.157,-0.012 -0.323,-0.027 -0.478,-0.046 l -0.225,-0.028 c -1.958,-0.243 -3.82,-0.691 -5.694,-1.368 l -0.045,-0.016 -0.046,0.014 c -2.832,0.901 -5.555,1.387 -8.323,1.488 l -0.178,0.005 c -0.594,0.013 -1.123,0.021 -1.659,0.021 l -0.468,-0.003 c -6.141,0 -12.384,-0.397 -18.483,-0.786 -5.687,-0.36 -11.568,-0.732 -16.977,-0.732 -7.126,0 -12.535,0.62 -17.017,1.947 l -2.466,0.748 c -1.57,0.475 -3.241,0.511 -4.833,0.107 L 36.604,79.755 C 31.648,78.504 27.863,76.549 25.1,75.123 23.992,74.551 22.61,73.838 22.096,73.706 l -3.481,-0.885 c -2.079,-0.529 -3.902,-1.786 -5.137,-3.537 l -2.035,-2.89 C 11.01,65.781 10.59,65.165 10.185,64.547 l -0.078,-0.118 -0.116,0.079 c -7.879,5.331 -16.691,9.686 -26.192,12.944 -12.897,4.422 -26.032,6.664 -39.044,6.664 -20.943,0 -38.942,-5.575 -53.498,-16.572 -16.023,-12.101 -24.491,-29.909 -24.491,-51.5 0,-21.563 6.845,-38.13 20.345,-49.24 0.264,-0.216 0.529,-0.432 0.794,-0.641 l 0.111,-0.089 -13.399,-16.425 -0.07,0.007 c -0.276,0.027 -0.554,0.038 -0.836,0.038 h -60.553 V 71.388 c 0,4.959 -4.034,8.993 -8.992,8.993 h -57.713 c -4.959,0 -8.994,-4.034 -8.994,-8.993 V 45.455 l -0.246,0.299 c -2.442,2.973 -5.107,5.872 -7.92,8.617 -20.213,19.737 -45.324,29.745 -74.633,29.745 -29.313,0 -54.424,-10.008 -74.634,-29.745 -8.273,-8.074 -14.974,-17.151 -19.919,-26.978 l -0.092,-0.185 -9.228,10.337 0.107,5.543 c 0.064,3.389 -1.749,6.491 -4.734,8.095 l -19.742,10.61 -0.284,0.147 -2.001,5.423 c -1.13,3.127 -3.876,5.366 -7.166,5.843 l -22.4,3.233 -3.322,4.251 c -2.097,2.685 -5.611,3.962 -8.922,3.268 l -22.371,-4.681 -4.663,2.862 c -2.824,1.736 -6.616,1.728 -9.439,-0.019 l -19.386,-12.021 -5.346,1.095 c -3.305,0.67 -6.769,-0.591 -8.861,-3.24 l -10.723,-13.583 v 17.017 c 0,4.959 -4.034,8.993 -8.993,8.993 h -150.127 c -4.959,0 -8.993,-4.034 -8.993,-8.993 V 18.576 c 0,-4.959 4.034,-8.993 8.993,-8.993 h 37.213 v -122.627 c 0,-4.959 4.035,-8.993 8.994,-8.993 h 57.713 c 4.958,0 8.993,4.034 8.993,8.993 V 9.583 h 13.585 l 0.664,-21.696 -3.57,-3.913 c -2.306,-2.529 -2.975,-6.216 -1.706,-9.394 l 8.509,-21.259 -1.999,-5.17 c -1.224,-3.162 -0.582,-6.696 1.674,-9.227 l 15.143,-16.965 -0.267,-5.185 c -0.177,-3.453 1.676,-6.743 4.723,-8.381 l 20.263,-10.876 1.749,-5.2 c 1.089,-3.228 3.859,-5.539 7.231,-6.028 l 22.545,-3.252 3.33,-4.25 c 1.715,-2.189 4.295,-3.446 7.077,-3.446 0.611,0 1.225,0.063 1.827,0.19 l 22.094,4.585 0.313,0.071 4.89,-2.875 c 2.841,-1.671 6.49,-1.632 9.294,0.105 l 19.278,11.959 5.684,-1.009 c 3.271,-0.578 6.576,0.684 8.628,3.285 l 14.02,17.792 5.443,0.83 c 3.368,0.513 6.122,2.842 7.189,6.076 l 6.172,18.726 0.15,-0.313 c 5.028,-10.493 12.014,-20.145 20.765,-28.689 20.21,-19.737 45.321,-29.744 74.635,-29.744 29.311,0 54.422,10.007 74.634,29.744 2.809,2.741 5.473,5.64 7.919,8.617 l 0.246,0.299 v -28.034 c 0,-4.959 4.035,-8.993 8.994,-8.993 h 127.258 c 4.957,0 8.992,4.034 8.992,8.993 v 9.8 l 0.217,-0.148 c 20.119,-13.611 42.414,-20.512 66.269,-20.512 22.516,0 41.301,6.117 55.835,18.179 11.163,9.264 18.447,20.704 21.649,34.005 l 0.077,0.324 0.175,-0.283 c 0.689,-1.117 1.487,-2.172 2.372,-3.138 l 0.036,-0.089 c 0.174,-6.721 0.853,-13.699 1.453,-19.877 l 0.664,-7.343 c 0.174,-2.085 1.077,-4.055 2.541,-5.548 l 2.42,-2.468 c 10.331,-10.395 25.026,-11.847 38.042,-11.895 3.994,0 7.95,0.139 11.821,0.271 3.679,0.13 7.155,0.253 10.413,0.253 2.465,0 4.391,-0.062 6.063,-0.199 l 6.563,-0.501 c 3.621,-0.275 7.156,1.735 8.761,5.017 l 2.853,5.832 c 5.016,10.219 7.564,22.256 7.571,35.772 -0.005,9.476 -1.211,19.595 -3.685,30.94 l -1.883,8.445 c -0.986,4.407 -5.269,7.475 -9.755,6.982 l -5.1,-0.556 0.027,0.177 c 0.184,1.284 0.36,2.599 0.517,3.939 l 0.012,0.098 0.095,0.022 c 3.044,0.717 5.714,1.737 8.141,3.114 l 0.185,-0.219 1.416,1.023 -0.078,0.128 4.574,2.909 c 2.918,1.856 4.525,5.271 4.098,8.7 l -0.458,3.668 0.055,0.049 c 1.878,1.633 3.881,3.495 5.814,6.026 l 0.066,0.047 c 3.604,1.169 7.02,2.973 10.149,5.361 l 0.043,0.031 0.048,-10e-4 c 2.038,-0.055 4.583,-0.299 7.324,-0.561 4.117,-0.393 8.781,-0.839 13.73,-0.843 3.527,0 6.758,0.226 9.883,0.694 l 0.18,0.028 c 1.832,0.302 3.676,0.732 5.482,1.277 l 0.23,0.07 -0.054,-0.235 c -1.917,-8.112 -2.89,-16.691 -2.89,-25.498 0,-29.342 10.315,-54.289 30.657,-74.149 20.212,-19.737 45.322,-29.744 74.635,-29.744 29.312,0 54.422,10.007 74.636,29.744 3.208,3.133 6.213,6.452 8.931,9.867 l 0.248,0.313 v -29.298 c 0,-4.959 4.035,-8.993 8.993,-8.993 h 57.713 c 4.958,0 8.992,4.034 8.992,8.993 v 36.514 h 2.057 c 28.545,0 50.755,6.145 66.015,18.267 16.617,13.205 25.043,33.26 25.043,59.606 0,26.077 -8.1,46.188 -24.07,59.772"
             style="fill:#253b7d;fill-opacity:1;fill-rule:nonzero;stroke:none"
             id="path30" /></g><g
           id="g32"
           transform="translate(573.3443,298.0027)"><path
             d="m 0,0 c 0,-9.546 -2.892,-17.341 -8.841,-23.832 -5.722,-6.247 -11.685,-8.914 -19.936,-8.914 -8.254,0 -14.216,2.665 -19.934,8.91 -5.952,6.495 -8.845,14.292 -8.845,23.836 0,9.572 2.91,17.425 8.895,24.007 5.715,6.288 11.662,8.971 19.884,8.971 8.221,0 14.168,-2.682 19.884,-8.97 C -2.909,17.427 0,9.574 0,0 m -28.777,41.833 c -10.675,0 -19.075,-3.772 -26.436,-11.87 C -62.642,21.791 -66.409,11.709 -66.409,0 c 0,-11.694 3.758,-21.728 11.169,-29.816 7.362,-8.039 15.771,-11.783 26.463,-11.783 10.692,0 19.1,3.745 26.464,11.785 7.41,8.088 11.167,18.12 11.167,29.814 0,11.711 -3.767,21.792 -11.195,29.963 -7.362,8.098 -15.762,11.87 -26.436,11.87"
             style="fill:#253b7d;fill-opacity:1;fill-rule:nonzero;stroke:none"
             id="path34" /></g><g
           id="g36"
           transform="translate(1003.3423,325.6911)"><path
             d="M 0,0 C 2.418,2.09 4.919,4.252 5.712,7.989 L 6.062,9.637 7.746,9.596 C 7.855,9.593 7.966,9.593 8.073,9.593 h 0.041 0.109 c 5.956,0 9.469,2.867 12.121,5.671 l 0.379,0.401 0.53,0.154 c 1.921,0.557 4.234,0.828 7.073,0.828 h 0.095 c 3.07,0 6.413,-0.319 9.953,-0.658 3.877,-0.371 7.887,-0.754 11.92,-0.757 2.56,0 4.861,0.158 7.033,0.483 3.527,0.583 6.534,1.98 9.442,3.332 3.069,1.426 5.967,2.773 8.957,2.773 0.079,0 0.158,-0.001 0.237,-0.003 0.094,0 0.182,-0.001 0.266,-0.003 0.136,3.27 1.926,4.245 3.657,5.188 0.484,0.253 0.965,0.462 1.428,0.665 1.299,0.565 2.529,1.101 3.4,2.203 -0.31,1.915 -1.821,2.645 -3.901,3.452 l -0.177,0.068 -0.046,0.018 -0.045,0.021 -0.35,0.155 c -2.017,0.895 -3.923,1.74 -4.002,4.935 -0.004,0.182 0,0.358 0.012,0.529 -10.843,4.468 -22.214,6.377 -37.914,6.377 -4.599,-0.006 -9.663,-0.154 -16.422,-0.483 l -1.204,-0.059 -0.628,1.031 c -0.217,0.357 -0.432,0.741 -0.652,1.14 -0.859,1.546 -1.67,3.009 -3.298,3.881 -0.716,-0.158 -1.371,-0.232 -2.024,-0.232 l -0.138,-0.001 c -1.316,0 -2.555,0.33 -3.866,0.68 C 8.545,51.786 6.98,52.203 4.99,52.224 4.746,52.224 4.459,52.213 4.108,52.19 2.78,52.015 1.71,51.464 0.675,50.93 0.09,50.629 -0.506,50.323 -1.134,50.097 v -0.34 l -1.638,-0.003 c -0.069,-0.003 -0.137,-0.004 -0.207,-0.004 -0.064,0 -0.127,10e-4 -0.192,0.004 h -0.482 l -0.022,0.011 c -1.472,0.072 -2.8,0.586 -4.2,1.128 -1.548,0.598 -3.147,1.218 -5.122,1.29 -0.356,0.007 -0.746,0.012 -1.136,0.012 l -0.416,-0.002 c -5.57,0 -11.253,-0.36 -17.268,-0.743 -5.999,-0.381 -12.204,-0.775 -18.248,-0.775 -8.955,0 -16.054,0.857 -22.324,2.697 -2.786,-0.727 -5.074,-1.908 -7.288,-3.051 -2.138,-1.104 -4.348,-2.245 -6.91,-2.919 -4.351,-6.213 -6.373,-12.113 -6.364,-18.552 0,-3.382 0.54,-6.949 1.649,-10.9 1.495,-0.873 2.897,-1.861 4.377,-2.903 3.68,-2.593 7.485,-5.275 13.462,-6.621 3.084,-0.624 6.54,-0.724 9.882,-0.821 6.743,-0.196 13.112,-0.38 16.649,-4.806 l 0.661,-0.827 -0.3,-1.016 c -0.883,-2.978 -1.834,-5.964 -2.755,-8.851 -3.965,-12.438 -8.066,-25.299 -8.066,-41.979 0,-1.541 0.036,-3.11 0.106,-4.664 l 0.049,-1.096 -0.889,-0.641 c -0.643,-0.464 -1.504,-0.813 -2.502,-1.217 -0.225,-0.092 -0.458,-0.186 -0.697,-0.285 l -0.032,-0.014 -0.034,-0.013 c -0.34,-0.128 -2.038,-0.857 -1.986,-2.669 v -0.029 -0.028 -0.09 -1.206 l -1.06,-0.576 c -0.748,-0.407 -1.738,-0.69 -2.885,-1.019 -0.284,-0.081 -0.577,-0.165 -0.875,-0.253 l -0.04,-0.012 -0.039,-0.01 c -0.409,-0.104 -2.442,-0.721 -2.382,-2.735 l 0.002,-0.057 -0.002,-0.059 c -0.002,-0.095 0.001,-0.264 0.033,-0.521 l 0.031,-0.248 -0.03,-0.247 c -0.026,-0.22 -0.04,-0.411 -0.04,-0.583 v -0.035 l -0.001,-0.034 c -0.028,-0.826 0.426,-1.51 0.866,-1.732 l 0.028,-0.015 0.027,-0.015 c 0.741,-0.404 1.644,-0.489 2.771,-0.494 h 0.181 2.283 l -0.268,-2.267 c -0.232,-1.963 -0.345,-4.195 -0.345,-6.822 0,-6.737 0.747,-14.4 1.405,-21.162 0.133,-1.368 0.262,-2.691 0.379,-3.95 5.351,-5.224 14.84,-5.984 24.308,-6.019 3.618,0 7.428,0.133 11.113,0.262 3.667,0.129 7.458,0.262 11.05,0.262 2.813,0 5.121,-0.074 7.219,-0.231 3.615,7.524 5.449,16.612 5.454,27.022 -0.004,7.939 -1.031,16.564 -3.137,26.348 -0.996,-0.095 -2.039,-0.142 -3.167,-0.142 h -0.087 c -2.38,0 -4.534,0.245 -6.618,0.482 -1.86,0.211 -3.617,0.412 -5.38,0.417 -1.03,0 -1.942,-0.071 -2.817,-0.215 l -2.762,-0.458 0.424,2.767 c 0.472,3.082 1.033,6.149 1.574,9.113 1.347,7.372 2.739,14.995 2.939,23.685 l 0.006,0.246 0.065,0.237 c 0.971,3.586 4.432,4.53 7.599,5.134 0.873,0.165 1.785,0.295 2.667,0.42 2.332,0.332 4.74,0.674 6.611,1.683 -0.084,0.767 -0.125,1.45 -0.125,2.08 0.051,5.95 3.034,8.598 5.918,11.159 z"
             style="fill:#dd2428;fill-opacity:1;fill-rule:nonzero;stroke:none"
             id="path38" /></g><g
           id="g40"
           transform="translate(358.8218,284.1081)"><path
             d="m 0,0 c -0.623,0.009 -1.235,0.061 -1.835,0.15 -6.592,0.99 -11.596,6.694 -11.501,13.557 0.102,7.486 6.232,13.439 13.707,13.336 C 1,27.035 1.618,26.983 2.222,26.893 8.815,25.903 13.804,20.194 13.71,13.336 13.608,5.85 7.487,-0.093 0,0 m 78.712,30.626 c -0.006,10e-4 -3.507,2.343 -5.666,4.057 -0.937,0.751 -1.416,1.582 -1.626,2.023 -0.52,1.638 -1.153,3.423 -1.871,5.178 0.012,0.116 0.02,0.253 0.413,0.768 0.166,0.232 0.622,0.527 1.044,0.7 0.277,0.118 0.508,0.184 0.631,0.219 l 5.785,0.026 0.448,1.147 0.316,0.806 -9.629,10.805 -0.431,0.1 c -0.012,0.002 -4.112,0.998 -6.702,1.873 -1.169,0.394 -1.928,1.042 -2.268,1.374 -1.016,1.33 -2.205,2.744 -3.449,4.115 -0.049,0.106 -0.052,0.151 -0.06,0.273 0.002,0.122 0.028,0.332 0.139,0.659 0.08,0.282 0.408,0.722 0.75,1.033 0.217,0.202 0.405,0.338 0.513,0.415 l 5.435,2.006 0.024,1.237 0.017,0.866 -12.735,6.845 -0.438,-0.047 C 49.344,77.099 45.15,76.638 42.406,76.57 42.334,76.565 42.247,76.567 42.16,76.568 c -0.294,0.004 -0.567,0.029 -0.818,0.066 -0.573,0.086 -1.028,0.24 -1.341,0.368 -1.59,1.005 -3.221,1.929 -4.872,2.798 -0.116,0.123 -0.15,0.179 -0.213,0.896 0,0.022 -0.007,0.033 -0.007,0.033 -0.042,0.55 0.574,1.491 0.726,1.755 l 4.398,3.746 -0.418,1.169 -0.291,0.806 -14.293,2.075 -0.395,-0.195 c -0.005,-0.005 -3.787,-1.876 -6.34,-2.879 -0.904,-0.354 -1.703,-0.42 -2.241,-0.413 -0.062,10e-4 -0.128,10e-4 -0.195,0.008 -1.355,0.287 -2.724,0.531 -4.102,0.737 -0.443,0.067 -0.887,0.129 -1.333,0.189 -0.227,0.106 -0.225,0.065 -0.58,0.799 -0.068,0.167 -0.117,0.471 -0.113,0.792 0.002,0.475 0.113,0.917 0.159,1.111 l 2.868,5.013 -0.76,0.966 -0.545,0.698 -14.164,-2.953 -0.303,-0.317 c -0.005,-0.006 -2.931,-3.062 -4.986,-4.882 -0.836,-0.733 -1.653,-1.059 -2.151,-1.219 -1.856,-0.253 -3.672,-0.591 -5.461,-0.974 -0.04,0.003 -0.072,0.005 -0.102,0.01 -0.13,0.019 -0.218,0.087 -0.657,0.524 -0.208,0.209 -0.423,0.703 -0.517,1.148 -0.068,0.289 -0.092,0.523 -0.101,0.651 l 0.967,5.719 -1.044,0.636 -0.749,0.46 -12.307,-7.618 -0.175,-0.402 c 0,-0.006 -1.697,-3.867 -3.005,-6.274 -0.521,-0.965 -1.153,-1.539 -1.576,-1.863 -1.656,-0.879 -3.268,-1.828 -4.843,-2.822 -0.056,-0.011 -0.095,-0.015 -0.134,-0.018 -0.021,0 -0.046,0.002 -0.078,0.006 -0.119,0.019 -0.321,0.079 -0.684,0.269 -0.251,0.12 -0.625,0.516 -0.865,0.899 -0.163,0.247 -0.267,0.456 -0.322,0.577 l -1.037,5.696 -1.202,0.244 -0.858,0.175 -8.959,-11.348 -0.024,-0.446 c 0,-0.006 -0.275,-4.219 -0.681,-6.944 -0.185,-1.208 -0.694,-2.066 -0.957,-2.452 -1.149,-1.249 -2.365,-2.678 -3.521,-4.169 -0.083,-0.046 -0.146,-0.053 -0.433,-0.063 -0.118,10e-4 -0.275,0.017 -0.474,0.037 -0.009,10e-4 -0.019,0.002 -0.029,0.003 -0.268,0.041 -0.729,0.278 -1.081,0.55 -0.238,0.178 -0.407,0.342 -0.496,0.429 l -2.921,4.999 -1.219,-0.186 -0.862,-0.13 -4.524,-13.732 0.123,-0.429 c 0,-0.005 1.185,-4.053 1.733,-6.747 0.092,-0.464 0.122,-0.898 0.117,-1.28 -0.007,-0.5 -0.079,-0.91 -0.144,-1.209 -0.697,-1.716 -1.342,-3.466 -1.912,-5.251 -0.09,-0.121 -0.154,-0.172 -0.829,-0.347 -0.069,-0.018 -0.18,-0.027 -0.315,-0.025 -0.107,0 -0.219,0.009 -0.331,0.026 -0.264,0.04 -0.532,0.118 -0.76,0.199 -0.207,0.075 -0.378,0.147 -0.477,0.184 l -4.437,3.691 -1.083,-0.604 -0.756,-0.423 0.434,-14.438 0.264,-0.353 c 0.005,-0.006 2.504,-3.411 3.94,-5.753 0.664,-1.081 0.819,-2.099 0.855,-2.543 -0.023,-0.346 -0.059,-0.884 -0.068,-1.475 -0.017,-1.304 0.002,-2.603 0.052,-3.88 -0.046,-0.183 -0.041,-0.21 -0.668,-0.651 -0.296,-0.212 -1.094,-0.324 -1.585,-0.305 -0.126,0.001 -0.223,0.008 -0.293,0.015 l -5.442,1.938 -0.815,-0.903 -0.594,-0.654 5.368,-13.442 0.366,-0.244 c 0.005,-0.005 3.507,-2.342 5.665,-4.056 0.95,-0.758 1.428,-1.598 1.633,-2.044 0.517,-1.633 1.148,-3.4 1.864,-5.147 -0.012,-0.112 -0.022,-0.252 -0.419,-0.778 -0.161,-0.231 -0.614,-0.528 -1.038,-0.7 -0.28,-0.119 -0.508,-0.184 -0.631,-0.219 l -5.797,-0.025 -0.436,-1.161 -0.309,-0.801 9.621,-10.792 0.431,-0.106 c 0.019,-0.002 4.109,-0.998 6.702,-1.872 1.182,-0.401 1.94,-1.049 2.274,-1.381 1.018,-1.322 2.204,-2.727 3.438,-4.092 0.057,-0.117 0.059,-0.157 0.065,-0.278 -0.001,-0.112 -0.033,-0.332 -0.15,-0.699 -0.066,-0.248 -0.395,-0.692 -0.733,-1.004 -0.223,-0.208 -0.418,-0.349 -0.525,-0.42 l -5.392,-1.985 -0.064,-1.204 -0.047,-0.899 12.757,-6.861 0.447,0.054 c 0.005,0 4.206,0.459 6.957,0.538 0.122,-0.002 0.198,0.002 0.24,10e-4 0.29,-0.004 0.559,-0.028 0.806,-0.065 0.583,-0.087 1.042,-0.245 1.356,-0.374 1.582,-0.998 3.209,-1.92 4.855,-2.792 0.133,-0.135 0.159,-0.163 0.232,-0.907 -10e-4,0.005 -0.002,0.007 -0.002,0.007 -0.002,0 0.002,-0.036 0.002,-0.036 0.042,-0.539 -0.562,-1.473 -0.723,-1.754 l -4.388,-3.729 0.398,-1.173 0.276,-0.818 14.309,-2.079 0.401,0.195 c 0.005,0.006 3.786,1.874 6.339,2.877 0.919,0.365 1.716,0.426 2.242,0.425 0.098,-10e-4 0.169,-0.008 0.203,-0.013 0.005,-10e-4 0.009,-10e-4 0.013,-0.002 1.369,-0.299 2.837,-0.558 4.331,-0.782 0.366,-0.055 0.733,-0.108 1.102,-0.159 0.21,-0.097 0.219,-0.069 0.557,-0.784 0.073,-0.167 0.122,-0.462 0.112,-0.784 -0.003,-0.482 -0.113,-0.932 -0.16,-1.125 l -2.86,-5.012 0.758,-0.963 0.54,-0.69 14.168,2.941 0.303,0.317 c 0.007,0.012 2.933,3.063 4.989,4.882 0.825,0.727 1.642,1.059 2.135,1.215 1.853,0.263 3.681,0.592 5.479,0.99 0.034,-0.004 0.063,-0.006 0.091,-0.01 0.133,-0.02 0.219,-0.084 0.67,-0.532 0.206,-0.209 0.418,-0.706 0.516,-1.152 0.069,-0.299 0.089,-0.54 0.1,-0.668 l -0.972,-5.712 1.068,-0.637 0.744,-0.438 12.284,7.607 0.18,0.403 c 0,0.012 1.697,3.866 3.011,6.274 0.515,0.959 1.144,1.539 1.558,1.861 1.664,0.881 3.275,1.83 4.849,2.824 0.067,0.016 0.107,0.02 0.141,0.02 0.02,0 0.044,-0.002 0.075,-0.007 0.115,-0.018 0.316,-0.076 0.682,-0.27 0.254,-0.12 0.63,-0.513 0.869,-0.904 0.159,-0.237 0.263,-0.443 0.321,-0.566 l 1.045,-5.718 1.224,-0.236 0.842,-0.149 8.942,11.331 0.03,0.443 c 0,0.007 0.28,4.226 0.686,6.94 0.185,1.249 0.719,2.127 0.973,2.49 1.138,1.243 2.337,2.645 3.474,4.113 0.103,0.073 0.134,0.077 0.454,0.092 0.118,-0.002 0.244,-0.008 0.399,-0.03 0.01,-0.002 0.022,-0.004 0.032,-0.006 0.011,-10e-4 0.022,-0.002 0.033,-0.004 0.304,-0.046 0.771,-0.284 1.117,-0.556 0.25,-0.18 0.422,-0.352 0.512,-0.443 l 2.908,-4.975 1.224,0.177 0.861,0.131 4.529,13.736 -0.129,0.422 c 0,0.007 -1.185,4.054 -1.726,6.742 -0.1,0.482 -0.134,0.921 -0.128,1.294 0.007,0.568 0.096,1.018 0.163,1.279 0.657,1.583 1.311,3.349 1.893,5.169 0.095,0.128 0.149,0.169 0.833,0.354 0.087,0.02 0.193,0.031 0.311,0.029 0.102,0.002 0.209,-0.007 0.318,-0.023 0.26,-0.039 0.529,-0.121 0.755,-0.203 0.215,-0.074 0.393,-0.15 0.499,-0.189 l 4.443,-3.691 1.084,0.609 0.75,0.423 -0.434,14.433 -0.264,0.352 c -0.007,0.005 -2.498,3.411 -3.934,5.753 -0.677,1.092 -0.826,2.135 -0.859,2.569 0.021,0.335 0.056,0.867 0.064,1.444 0.018,1.31 10e-4,2.597 -0.051,3.88 0.049,0.188 0.046,0.213 0.667,0.656 l 0.003,-0.005 c 0.301,0.218 1.099,0.334 1.584,0.317 0.121,-0.002 0.216,-0.009 0.282,-0.015 l 5.459,-1.951 0.814,0.916 0.582,0.655 -5.361,13.434 z"
             style="fill:#dd2428;fill-opacity:1;fill-rule:nonzero;stroke:none"
             id="path42" /></g><g
           id="g44"
           transform="translate(142.3497,346.6198)"><path
             d="m 0,0 h 44.178 2.03 V -2.029 -131.62 H 83.627 V -2.029 0 h 2.03 44.177 V 32.519 H 0 Z"
             style="fill:#dd2428;fill-opacity:1;fill-rule:nonzero;stroke:none"
             id="path46" /></g><g
           id="g48"
           transform="translate(578.6143,261.24)"><path
             d="m 0,0 c -9.319,-10.175 -20.456,-15.121 -34.047,-15.121 -13.592,0 -24.73,4.946 -34.049,15.121 -9.202,10.044 -13.868,22.413 -13.868,36.763 0,14.348 4.666,26.757 13.87,36.882 9.32,10.251 20.456,15.235 34.047,15.235 C -20.457,88.88 -9.32,83.896 0,73.645 9.203,63.521 13.869,51.112 13.869,36.763 13.869,22.412 9.203,10.044 0,0 m -34.164,121.634 c -24.141,0 -44.753,-8.176 -61.264,-24.299 -16.516,-16.125 -24.89,-36.464 -24.89,-60.456 0,-23.989 8.374,-44.329 24.89,-60.455 16.511,-16.123 37.123,-24.298 61.264,-24.298 24.138,0 44.749,8.175 61.263,24.298 16.516,16.129 24.891,36.47 24.891,60.455 0,23.988 -8.375,44.328 -24.891,60.456 -16.514,16.123 -37.125,24.299 -61.263,24.299"
             style="fill:#dd2428;fill-opacity:1;fill-rule:nonzero;stroke:none"
             id="path50" /></g><g
           id="g52"
           transform="translate(683.8091,248.4519)"><path
             d="M 0,0 V 2.029 130.687 H -37.42 V -33.452 H 69.544 V 0 H 2.029 Z"
             style="fill:#dd2428;fill-opacity:1;fill-rule:nonzero;stroke:none"
             id="path54" /></g><g
           id="g56"
           transform="translate(867.3804,377.2453)"><path
             d="m 0,0 c -10.895,3.734 -21.942,5.628 -32.836,5.628 -16.684,0 -30.802,-4.274 -41.963,-12.704 -11.205,-8.462 -16.888,-20.651 -16.888,-36.228 0,-15.567 4.499,-27.162 13.371,-34.463 8.81,-7.253 22.887,-13.213 41.84,-17.716 11.877,-2.933 19.906,-5.85 23.88,-8.675 3.887,-2.768 5.857,-6.555 5.857,-11.257 0,-4.71 -1.856,-8.5 -5.517,-11.263 -3.702,-2.796 -8.899,-4.215 -15.446,-4.215 -14.74,0 -31.038,7.73 -48.44,22.977 l -0.395,0.346 -22.336,-27.38 0.35,-0.323 c 20.689,-19.137 44.281,-28.84 70.121,-28.84 17.931,0 32.605,4.633 43.614,13.77 11.039,9.159 16.636,21.264 16.636,35.979 0,14.703 -4.376,26.059 -13.006,33.751 -8.58,7.64 -20.783,13.449 -36.272,17.266 -15.562,3.829 -25.207,7.051 -29.481,9.849 -4.106,2.686 -6.188,6.352 -6.188,10.894 0,4.562 1.704,8.278 5.067,11.043 3.391,2.79 8.112,4.203 14.029,4.203 14.906,0 29.564,-5.383 43.566,-15.999 l 0.422,-0.32 19.002,27.418 -0.352,0.298 C 20.53,-9.107 10.896,-3.737 0,0"
             style="fill:#dd2428;fill-opacity:1;fill-rule:nonzero;stroke:none"
             id="path58" /></g><g
           id="g60"
           transform="translate(1137.8159,334.8845)"><path
             d="m 0,0 c 9.319,10.252 20.457,15.236 34.048,15.236 13.59,0 24.726,-4.984 34.046,-15.236 9.204,-10.123 13.87,-22.532 13.87,-36.882 0,-14.35 -4.666,-26.719 -13.869,-36.763 -9.32,-10.174 -20.456,-15.121 -34.047,-15.121 -13.592,0 -24.73,4.947 -34.049,15.121 -9.202,10.045 -13.869,22.414 -13.869,36.763 0,14.349 4.667,26.758 13.87,36.882 m -27.334,-97.221 c 16.512,-16.123 37.124,-24.298 61.265,-24.298 24.137,0 44.749,8.175 61.262,24.298 16.517,16.129 24.892,36.47 24.892,60.456 0,23.988 -8.375,44.327 -24.892,60.455 -16.513,16.124 -37.125,24.299 -61.262,24.299 -24.142,0 -44.753,-8.175 -61.264,-24.298 -16.516,-16.125 -24.891,-36.465 -24.891,-60.456 0,-23.99 8.374,-44.33 24.89,-60.456"
             style="fill:#dd2428;fill-opacity:1;fill-rule:nonzero;stroke:none"
             id="path62" /></g><g
           id="g64"
           transform="translate(1312.1196,295.0554)"><path
             d="m 0,0 v 49.769 2.029 h 2.029 18.234 c 11.814,0 20.628,-1.971 26.196,-5.859 5.586,-3.904 8.302,-10.334 8.302,-19.655 0,-9.237 -2.156,-16.347 -6.406,-21.133 -4.239,-4.764 -12.434,-7.18 -24.359,-7.18 H 2.029 0 Z m 0,-36.578 v 2.029 h 2.029 19.167 c 24.117,0 42.321,4.748 54.109,14.113 11.817,9.393 17.809,24.405 17.809,44.621 0,20.208 -5.831,35.413 -17.331,45.192 C 64.305,79.135 45.781,84.083 20.729,84.083 H -37.42 V -80.056 H 0 Z"
             style="fill:#dd2428;fill-opacity:1;fill-rule:nonzero;stroke:none"
             id="path66" /></g><g
           id="g68"
           transform="translate(1198.3286,268.2302)"><path
             d="m 0,0 c -7.364,-8.04 -15.774,-11.785 -26.465,-11.785 -10.691,0 -19.1,3.744 -26.466,11.783 -7.41,8.089 -11.167,18.12 -11.167,29.816 0,11.71 3.768,21.79 11.197,29.963 7.36,8.098 15.76,11.869 26.436,11.869 10.675,0 19.075,-3.771 26.436,-11.869 C 7.399,51.608 11.165,41.527 11.165,29.814 11.165,18.119 7.408,8.089 0,0 m -26.465,81.932 c -13.591,0 -24.728,-4.984 -34.048,-15.236 -9.203,-10.124 -13.87,-22.533 -13.87,-36.882 0,-14.349 4.667,-26.717 13.869,-36.762 9.32,-10.176 20.457,-15.121 34.049,-15.121 13.591,0 24.728,4.945 34.047,15.121 9.203,10.043 13.869,22.412 13.869,36.762 0,14.35 -4.666,26.759 -13.87,36.882 -9.319,10.252 -20.456,15.236 -34.046,15.236"
             style="fill:#ffffff;fill-opacity:1;fill-rule:nonzero;stroke:none"
             id="path70" /></g><g
           id="g72"
           transform="translate(571.0313,268.2302)"><path
             d="m 0,0 c -7.364,-8.04 -15.773,-11.785 -26.464,-11.785 -10.692,0 -19.101,3.744 -26.463,11.783 -7.411,8.089 -11.169,18.121 -11.169,29.816 0,11.709 3.767,21.79 11.196,29.963 7.361,8.098 15.761,11.869 26.436,11.869 10.674,0 19.074,-3.771 26.436,-11.869 C 7.4,51.606 11.167,41.525 11.167,29.814 11.167,18.119 7.41,8.089 0,0 m -26.464,81.932 c -13.591,0 -24.727,-4.984 -34.047,-15.236 -9.204,-10.124 -13.87,-22.533 -13.87,-36.882 0,-14.349 4.666,-26.718 13.868,-36.762 9.319,-10.175 20.457,-15.121 34.049,-15.121 13.591,0 24.728,4.945 34.047,15.121 9.203,10.043 13.869,22.412 13.869,36.762 0,14.35 -4.666,26.759 -13.869,36.882 -9.32,10.252 -20.457,15.236 -34.047,15.236"
             style="fill:#ffffff;fill-opacity:1;fill-rule:nonzero;stroke:none"
             id="path74" /></g><g
           id="g76"
           transform="translate(361.044,311.0427)"><path
             d="m 0,0 c -0.604,0.091 -1.223,0.142 -1.852,0.15 -7.475,0.103 -13.604,-5.85 -13.707,-13.336 -0.094,-6.863 4.91,-12.567 11.502,-13.557 0.599,-0.09 1.212,-0.141 1.835,-0.151 7.487,-0.092 13.608,5.851 13.71,13.337 C 11.582,-6.699 6.593,-0.99 0,0"
             style="fill:#ffffff;fill-opacity:1;fill-rule:nonzero;stroke:none"
             id="path78" /></g><g
           id="g80"
           transform="translate(1387.4243,274.6609)"><path
             d="m 0,0 c -11.788,-9.364 -29.992,-14.113 -54.108,-14.113 h -19.167 -2.03 v -2.03 -43.476 h -37.42 V 104.52 h 58.15 C -29.522,104.52 -11,99.572 0.479,89.813 11.979,80.034 17.81,64.829 17.81,44.621 17.81,24.405 11.817,9.393 0,0 m -154.415,-36.955 c -16.514,-16.123 -37.125,-24.299 -61.263,-24.299 -24.14,0 -44.753,8.176 -61.264,24.299 -16.516,16.126 -24.89,36.466 -24.89,60.455 0,23.991 8.375,44.332 24.891,60.456 16.51,16.123 37.122,24.298 61.263,24.298 24.138,0 44.749,-8.175 61.263,-24.298 16.517,-16.128 24.892,-36.468 24.892,-60.456 0,-23.986 -8.375,-44.326 -24.892,-60.455 M -304.196,78.074 c -1.731,-0.943 -3.521,-1.918 -3.657,-5.188 -0.084,0.002 -0.172,0.003 -0.266,0.003 -0.079,0.002 -0.158,0.003 -0.237,0.003 -2.99,0 -5.888,-1.347 -8.956,-2.773 -2.909,-1.351 -5.916,-2.749 -9.443,-3.332 -2.172,-0.325 -4.473,-0.483 -7.033,-0.483 -4.033,0.003 -8.043,0.386 -11.92,0.757 -3.54,0.338 -6.883,0.658 -9.953,0.658 h -0.095 c -2.839,0 -5.152,-0.271 -7.073,-0.828 l -0.529,-0.154 -0.38,-0.401 c -2.652,-2.804 -6.165,-5.671 -12.121,-5.671 h -0.109 -0.041 c -0.107,0 -0.218,0 -0.327,0.003 l -1.683,0.04 -0.351,-1.647 c -0.793,-3.737 -3.294,-5.898 -5.712,-7.989 l -0.484,-0.42 c -2.884,-2.561 -5.867,-5.209 -5.918,-11.159 0,-0.63 0.041,-1.313 0.125,-2.08 -1.871,-1.009 -4.279,-1.351 -6.611,-1.683 -0.882,-0.126 -1.794,-0.255 -2.667,-0.42 -3.167,-0.603 -6.628,-1.548 -7.599,-5.133 l -0.065,-0.238 -0.006,-0.247 c -0.2,-8.69 -1.592,-16.312 -2.939,-23.684 -0.541,-2.965 -1.102,-6.03 -1.574,-9.113 l -0.424,-2.768 2.762,0.458 c 0.875,0.145 1.787,0.216 2.817,0.216 1.763,-0.005 3.52,-0.205 5.38,-0.417 2.084,-0.237 4.238,-0.482 6.618,-0.482 h 0.087 c 1.128,0 2.171,0.046 3.167,0.142 2.106,-9.784 3.133,-18.408 3.137,-26.348 -0.005,-10.41 -1.84,-19.498 -5.454,-27.023 -2.098,0.158 -4.406,0.232 -7.219,0.232 -3.592,0 -7.383,-0.133 -11.05,-0.261 -3.685,-0.13 -7.495,-0.263 -11.113,-0.263 -9.468,0.035 -18.957,0.794 -24.308,6.019 -0.117,1.259 -0.245,2.582 -0.379,3.951 -0.658,6.76 -1.405,14.424 -1.405,21.161 0,2.628 0.113,4.859 0.345,6.822 l 0.268,2.268 h -2.283 -0.181 c -1.127,0.003 -2.03,0.089 -2.771,0.494 l -0.026,0.014 -0.029,0.014 c -0.44,0.224 -0.894,0.907 -0.866,1.733 l 0.001,0.035 v 0.034 c 0,0.172 0.014,0.363 0.04,0.583 l 0.03,0.247 -0.031,0.247 c -0.032,0.259 -0.035,0.427 -0.033,0.522 l 0.002,0.058 -0.002,0.058 c -0.06,2.013 1.973,2.631 2.382,2.735 l 0.039,0.01 0.04,0.011 c 0.298,0.089 0.591,0.173 0.875,0.254 1.147,0.328 2.137,0.613 2.886,1.018 l 1.059,0.576 v 1.207 0.089 0.029 0.03 c -0.052,1.811 1.646,2.541 1.986,2.669 l 0.034,0.012 0.032,0.013 c 0.239,0.1 0.472,0.194 0.697,0.285 0.998,0.404 1.859,0.754 2.502,1.218 l 0.889,0.641 -0.049,1.095 c -0.07,1.554 -0.106,3.123 -0.106,4.665 0,16.679 4.101,29.541 8.066,41.979 0.921,2.887 1.872,5.872 2.755,8.851 l 0.301,1.015 -0.662,0.828 c -3.537,4.426 -9.906,4.61 -16.649,4.806 -3.342,0.096 -6.798,0.197 -9.882,0.821 -5.977,1.346 -9.782,4.028 -13.462,6.621 -1.48,1.043 -2.882,2.03 -4.377,2.903 -1.109,3.951 -1.649,7.518 -1.649,10.9 -0.009,6.439 2.014,12.339 6.364,18.552 2.562,0.674 4.772,1.815 6.91,2.919 2.214,1.143 4.502,2.324 7.288,3.05 6.27,-1.839 13.369,-2.696 22.324,-2.696 6.045,0 12.249,0.394 18.248,0.775 6.015,0.382 11.698,0.743 17.268,0.743 l 0.416,0.002 c 0.39,0 0.78,-0.005 1.136,-0.013 1.975,-0.071 3.574,-0.691 5.122,-1.289 1.4,-0.542 2.728,-1.056 4.2,-1.128 l 0.022,-0.011 h 0.482 c 0.065,-0.003 0.128,-0.004 0.193,-0.004 0.069,0 0.137,10e-4 0.206,0.004 l 1.638,0.003 v 0.34 c 0.628,0.226 1.224,0.532 1.809,0.833 1.035,0.534 2.105,1.085 3.433,1.26 0.351,0.023 0.638,0.034 0.882,0.034 1.99,-0.021 3.555,-0.438 5.069,-0.842 1.311,-0.35 2.55,-0.681 3.866,-0.681 l 0.139,0.002 c 0.652,0 1.307,0.074 2.023,0.231 1.628,-0.871 2.439,-2.334 3.298,-3.88 0.22,-0.399 0.434,-0.783 0.653,-1.141 l 0.627,-1.029 1.204,0.058 c 6.759,0.328 11.823,0.477 16.422,0.483 15.7,0 27.071,-1.909 37.913,-6.377 -0.011,-0.171 -0.015,-0.347 -0.011,-0.53 0.079,-3.194 1.985,-4.039 4.002,-4.934 l 0.35,-0.156 0.045,-0.02 0.046,-0.018 0.177,-0.068 c 2.081,-0.807 3.591,-1.537 3.901,-3.452 -0.871,-1.102 -2.101,-1.638 -3.4,-2.204 -0.463,-0.202 -0.944,-0.411 -1.428,-0.664 m -205.863,-19.125 -0.421,0.32 c -14.003,10.616 -28.661,16 -43.567,16 -5.917,0 -10.638,-1.415 -14.029,-4.204 -3.362,-2.765 -5.067,-6.48 -5.067,-11.042 0,-4.543 2.083,-8.208 6.188,-10.894 4.274,-2.798 13.919,-6.021 29.481,-9.85 15.489,-3.816 27.692,-9.626 36.272,-17.266 8.63,-7.692 13.006,-19.047 13.006,-33.751 0,-14.715 -5.597,-26.82 -16.636,-35.98 -11.009,-9.136 -25.683,-13.768 -43.614,-13.768 -25.84,0 -49.432,9.703 -70.121,28.84 l -0.35,0.323 22.336,27.38 0.396,-0.347 c 17.401,-15.246 33.699,-22.977 48.439,-22.977 6.547,0 11.744,1.418 15.446,4.215 3.661,2.764 5.517,6.554 5.517,11.264 0,4.701 -1.97,8.487 -5.857,11.257 -3.974,2.824 -12.003,5.741 -23.879,8.675 -18.954,4.502 -33.031,10.462 -41.841,17.715 -8.871,7.301 -13.37,18.896 -13.37,34.463 0,15.577 5.682,27.766 16.887,36.228 11.161,8.43 25.28,12.704 41.963,12.704 10.894,0 21.942,-1.893 32.836,-5.628 10.897,-3.737 20.531,-9.107 28.635,-15.961 l 0.352,-0.298 z M -634.071,-59.619 H -741.036 V 104.52 h 37.421 v -128.658 -2.029 h 2.029 67.515 z m -147.64,22.664 c -16.514,-16.123 -37.125,-24.299 -61.263,-24.299 -24.141,0 -44.753,8.176 -61.264,24.299 -16.516,16.125 -24.89,36.466 -24.89,60.455 0,23.991 8.374,44.332 24.89,60.456 16.511,16.123 37.123,24.298 61.264,24.298 24.138,0 44.749,-8.175 61.263,-24.298 16.516,-16.128 24.891,-36.468 24.891,-60.456 0,-23.986 -8.375,-44.326 -24.891,-60.455 m -163.035,62.737 -0.813,-0.916 -5.459,1.951 c -0.066,0.006 -0.161,0.013 -0.282,0.015 -0.486,0.018 -1.283,-0.099 -1.584,-0.317 l -0.004,0.006 c -0.621,-0.444 -0.618,-0.469 -0.667,-0.657 0.053,-1.283 0.07,-2.571 0.052,-3.88 -0.008,-0.577 -0.044,-1.109 -0.065,-1.445 0.034,-0.434 0.182,-1.476 0.859,-2.567 1.436,-2.343 3.928,-5.748 3.934,-5.754 l 0.265,-0.353 0.434,-14.431 -0.751,-0.424 -1.084,-0.609 -4.442,3.69 c -0.106,0.04 -0.285,0.116 -0.5,0.19 -0.225,0.081 -0.495,0.163 -0.754,0.202 -0.109,0.017 -0.217,0.026 -0.318,0.024 -0.118,0.002 -0.225,-0.009 -0.312,-0.029 -0.684,-0.185 -0.738,-0.226 -0.832,-0.355 -0.582,-1.818 -1.237,-3.585 -1.893,-5.168 -0.067,-0.261 -0.156,-0.712 -0.164,-1.28 -0.005,-0.372 0.028,-0.812 0.129,-1.293 0.541,-2.688 1.726,-6.735 1.726,-6.741 l 0.128,-0.423 -4.528,-13.736 -0.862,-0.13 -1.224,-0.178 -2.907,4.975 c -0.09,0.091 -0.263,0.263 -0.513,0.443 -0.345,0.272 -0.813,0.511 -1.116,0.556 -0.012,0.001 -0.022,0.003 -0.033,0.004 -0.011,0.002 -0.022,0.004 -0.032,0.005 -0.155,0.024 -0.282,0.03 -0.4,0.031 -0.319,-0.015 -0.351,-0.02 -0.453,-0.091 -1.138,-1.469 -2.337,-2.871 -3.474,-4.114 -0.255,-0.364 -0.789,-1.241 -0.974,-2.49 -0.406,-2.714 -0.685,-6.932 -0.685,-6.939 l -0.031,-0.444 -8.941,-11.331 -0.843,0.15 -1.223,0.234 -1.046,5.718 c -0.058,0.124 -0.161,0.33 -0.321,0.566 -0.239,0.391 -0.614,0.785 -0.869,0.905 -0.365,0.193 -0.567,0.252 -0.681,0.27 -0.032,0.005 -0.056,0.006 -0.076,0.006 -0.034,10e-4 -0.073,-0.003 -0.14,-0.02 -1.575,-0.994 -3.185,-1.942 -4.85,-2.824 -0.413,-0.321 -1.043,-0.901 -1.558,-1.86 -1.313,-2.407 -3.01,-6.263 -3.01,-6.275 l -0.18,-0.403 -12.284,-7.605 -0.745,0.437 -1.068,0.636 0.973,5.714 c -0.012,0.128 -0.031,0.367 -0.101,0.668 -0.097,0.445 -0.309,0.941 -0.516,1.15 -0.45,0.448 -0.536,0.513 -0.67,0.533 -0.027,0.004 -0.056,0.006 -0.09,0.01 -1.798,-0.397 -3.626,-0.727 -5.48,-0.991 -0.492,-0.154 -1.31,-0.487 -2.134,-1.214 -2.057,-1.818 -4.983,-4.871 -4.99,-4.882 l -0.303,-0.317 -14.167,-2.941 -0.541,0.689 -0.757,0.965 2.86,5.01 c 0.047,0.195 0.157,0.644 0.159,1.125 0.01,0.324 -0.038,0.618 -0.111,0.786 -0.339,0.713 -0.347,0.686 -0.558,0.783 -0.368,0.052 -0.736,0.104 -1.102,0.159 -1.493,0.225 -2.961,0.482 -4.331,0.782 0,0 -0.01,10e-4 -0.012,0.002 -0.035,0.005 -0.106,0.011 -0.204,0.013 -0.526,0 -1.323,-0.061 -2.241,-0.425 -2.553,-1.003 -6.334,-2.871 -6.339,-2.877 l -0.401,-0.194 -14.31,2.078 -0.276,0.818 -0.398,1.172 4.388,3.731 c 0.162,0.28 0.766,1.214 0.723,1.753 0,0 0,0.037 0,0.037 0,0 0,-0.003 0,-0.008 -0.073,0.743 -0.099,0.772 -0.232,0.907 -1.647,0.872 -3.274,1.794 -4.855,2.791 -0.314,0.13 -0.774,0.287 -1.356,0.375 -0.247,0.037 -0.517,0.062 -0.807,0.065 -0.041,10e-4 -0.118,-0.002 -0.24,-0.002 -2.75,-0.078 -6.951,-0.538 -6.957,-0.538 l -0.446,-0.053 -12.757,6.861 0.046,0.898 0.064,1.206 5.393,1.983 c 0.106,0.072 0.302,0.212 0.524,0.42 0.339,0.313 0.667,0.758 0.734,1.006 0.116,0.366 0.148,0.587 0.15,0.697 -0.01,0.122 -0.01,0.162 -0.066,0.279 -1.234,1.366 -2.419,2.77 -3.437,4.092 -0.334,0.332 -1.093,0.981 -2.275,1.381 -2.592,0.874 -6.683,1.869 -6.702,1.872 l -0.431,0.105 -9.62,10.793 0.309,0.8 0.435,1.162 5.798,0.025 c 0.122,0.035 0.351,0.1 0.63,0.22 0.424,0.171 0.878,0.467 1.039,0.7 0.397,0.525 0.407,0.666 0.419,0.777 -0.716,1.747 -1.348,3.515 -1.864,5.148 -0.205,0.444 -0.684,1.286 -1.634,2.043 -2.157,1.713 -5.66,4.051 -5.665,4.056 l -0.366,0.244 -5.368,13.443 0.595,0.652 0.814,0.904 5.442,-1.938 c 0.07,-0.007 0.167,-0.014 0.294,-0.016 0.49,-0.017 1.288,0.094 1.584,0.306 0.628,0.44 0.622,0.469 0.669,0.651 -0.05,1.278 -0.07,2.576 -0.052,3.88 0.01,0.591 0.045,1.129 0.067,1.475 -0.035,0.445 -0.19,1.463 -0.855,2.543 -1.435,2.342 -3.935,5.747 -3.94,5.754 l -0.264,0.352 -0.434,14.438 0.756,0.422 1.083,0.605 4.437,-3.69 c 0.099,-0.038 0.27,-0.11 0.477,-0.185 0.228,-0.081 0.497,-0.159 0.76,-0.199 0.113,-0.017 0.224,-0.027 0.331,-0.026 0.135,-0.002 0.247,0.007 0.316,0.025 0.674,0.175 0.739,0.226 0.828,0.347 0.57,1.785 1.216,3.535 1.913,5.251 0.064,0.299 0.137,0.709 0.144,1.208 0,0.383 -0.025,0.817 -0.117,1.281 -0.549,2.694 -1.734,6.742 -1.734,6.747 l -0.123,0.429 4.524,13.732 0.862,0.129 1.219,0.186 2.922,-4.999 c 0.089,-0.087 0.258,-0.25 0.496,-0.428 0.352,-0.272 0.813,-0.51 1.08,-0.55 0.011,-0.001 0.02,-0.003 0.03,-0.004 0.198,-0.019 0.356,-0.034 0.474,-0.036 0.286,0.009 0.349,0.017 0.432,0.063 1.157,1.491 2.373,2.92 3.521,4.169 0.264,0.386 0.772,1.244 0.957,2.452 0.407,2.724 0.682,6.938 0.682,6.944 l 0.023,0.446 8.959,11.349 0.858,-0.176 1.203,-0.243 1.037,-5.698 c 0.055,-0.12 0.159,-0.329 0.321,-0.576 0.24,-0.383 0.614,-0.78 0.866,-0.899 0.362,-0.19 0.565,-0.251 0.684,-0.268 0.031,-0.005 0.057,-0.007 0.078,-0.007 0.039,0.003 0.078,0.007 0.133,0.018 1.576,0.994 3.187,1.943 4.844,2.822 0.423,0.324 1.055,0.898 1.575,1.863 1.308,2.407 3.005,6.268 3.005,6.274 l 0.176,0.402 12.306,7.618 0.75,-0.46 1.043,-0.636 -0.967,-5.719 c 0.01,-0.128 0.033,-0.362 0.102,-0.651 0.093,-0.445 0.308,-0.939 0.517,-1.147 0.438,-0.437 0.526,-0.506 0.657,-0.526 0.029,-0.004 0.062,-0.006 0.101,-0.009 1.79,0.383 3.605,0.722 5.461,0.974 0.498,0.159 1.315,0.486 2.152,1.219 2.055,1.82 4.981,4.876 4.986,4.882 l 0.302,0.318 14.164,2.952 0.546,-0.698 0.759,-0.965 -2.868,-5.014 c -0.046,-0.194 -0.157,-0.636 -0.158,-1.111 0,-0.321 0.044,-0.625 0.112,-0.792 0.356,-0.734 0.353,-0.693 0.581,-0.799 0.445,-0.059 0.889,-0.122 1.333,-0.189 1.378,-0.207 2.746,-0.45 4.102,-0.737 0.066,-0.007 0.133,-0.007 0.194,-0.008 0.539,-0.008 1.338,0.059 2.242,0.413 2.552,1.003 6.334,2.874 6.34,2.879 l 0.395,0.195 14.293,-2.075 0.291,-0.806 0.418,-1.168 -4.399,-3.747 c -0.151,-0.264 -0.767,-1.205 -0.725,-1.755 0,0 0.007,-0.01 0.006,-0.033 0.064,-0.716 0.098,-0.773 0.214,-0.896 1.65,-0.869 3.282,-1.793 4.872,-2.798 0.313,-0.128 0.767,-0.282 1.341,-0.368 0.25,-0.038 0.523,-0.062 0.818,-0.066 0.086,-0.001 0.174,-0.002 0.246,0.002 2.743,0.067 6.937,0.529 6.946,0.534 l 0.438,0.047 12.734,-6.845 -0.017,-0.866 -0.023,-1.238 -5.436,-2.005 c -0.107,-0.077 -0.295,-0.213 -0.512,-0.415 -0.342,-0.312 -0.67,-0.751 -0.751,-1.033 -0.111,-0.326 -0.137,-0.537 -0.139,-0.659 0.009,-0.121 0.012,-0.166 0.06,-0.273 1.245,-1.371 2.434,-2.785 3.45,-4.115 0.339,-0.332 1.098,-0.98 2.268,-1.374 2.589,-0.876 6.69,-1.872 6.702,-1.873 l 0.431,-0.1 9.628,-10.804 -0.315,-0.807 -0.448,-1.147 -5.785,-0.026 c -0.124,-0.035 -0.354,-0.102 -0.632,-0.22 -0.421,-0.172 -0.878,-0.467 -1.044,-0.698 -0.392,-0.516 -0.4,-0.652 -0.412,-0.768 0.717,-1.756 1.351,-3.541 1.87,-5.18 0.21,-0.441 0.689,-1.272 1.627,-2.023 2.159,-1.713 5.66,-4.055 5.666,-4.056 l 0.366,-0.243 5.361,-13.435 -0.583,-0.655 z M -1115.24,72 h -44.178 -2.029 v -2.029 -129.59 h -37.42 V 69.971 72 h -2.029 -44.179 v 32.52 h 129.835 z M 7.142,97.648 c -13.391,11.385 -34.157,17.157 -61.717,17.157 H -123.01 V 56.832 l -1.7,-0.293 c -4.619,12.995 -12.196,24.695 -22.52,34.776 -18.5,18.065 -41.529,27.225 -68.449,27.225 -26.921,0 -49.949,-9.16 -68.447,-27.225 -1.65,-1.611 -3.236,-3.277 -4.847,-5.094 l -0.869,-0.98 -0.572,1.178 c -1.243,2.554 -3.306,4.64 -6.131,6.197 l -0.534,0.295 0.544,3.634 -6.998,2.908 c -12.282,5.138 -24.92,7.329 -42.259,7.329 -3.511,-0.004 -7.196,-0.087 -11.597,-0.26 l -0.442,-0.018 -0.277,0.348 c -1.563,1.963 -3.39,3.438 -5.587,4.505 l -3.297,1.532 -3.128,-0.815 -0.21,0.05 c -0.262,0.061 -0.605,0.151 -0.907,0.231 -1.965,0.525 -4.465,1.192 -7.842,1.227 -0.512,0 -1.042,-0.021 -1.659,-0.063 l -0.472,-0.045 c -2.629,-0.325 -4.676,-1.213 -6.164,-1.951 l -0.347,-0.171 -0.526,0.207 c -1.892,0.731 -4.755,1.839 -8.459,1.974 -0.576,0.014 -1.041,0.02 -1.514,0.02 l -0.426,-0.002 c -5.862,0 -11.961,-0.387 -17.86,-0.762 -5.899,-0.374 -11.929,-0.757 -17.641,-0.757 -8.005,0 -14.215,0.736 -19.543,2.315 l -2.545,0.771 -2.609,-0.665 c -3.98,-1.005 -7.11,-2.619 -9.624,-3.917 -1.843,-0.951 -3.422,-1.765 -4.922,-2.141 l -3.497,-0.889 -2.066,-2.934 c -2.115,-2.991 -3.851,-6.062 -5.163,-9.129 l -0.461,-1.077 -0.903,0.748 c -8.927,7.397 -19.434,13.198 -31.229,17.241 -11.97,4.104 -24.139,6.185 -36.171,6.185 -18.972,0 -35.176,-4.974 -48.161,-14.782 -13.722,-10.362 -20.975,-25.728 -20.975,-44.436 0,-18.79 5.76,-33.057 17.121,-42.405 2.18,-1.794 4.655,-3.54 7.358,-5.186 l 0.55,-0.335 0.003,0.003 c 9.604,-5.739 22.404,-10.535 38.04,-14.251 14.399,-3.558 19.025,-6.126 20.345,-7.064 1.203,-0.854 1.531,-1.471 1.531,-2.871 0,-1.68 -0.46,-2.322 -1.428,-3.055 -1.853,-1.4 -5.05,-2.139 -9.25,-2.139 -12.171,0 -26.188,6.873 -41.661,20.427 h -10e-4 l -8.405,7.37 -25.973,-31.837 v 6.14 h -69.544 v 130.686 h -57.991 V 59.548 l -1.691,-0.319 c -4.675,11.917 -11.914,22.713 -21.514,32.086 -18.501,18.065 -41.53,27.225 -68.449,27.225 -26.919,0 -49.95,-9.16 -68.45,-27.225 -10.441,-10.193 -18.065,-22.033 -22.663,-35.188 l -0.765,-2.638 -3.046,4.008 -15.387,17.262 -2.523,0.588 0.217,11.276 -19.857,10.672 -2.564,-0.269 -3.844,10.684 -22.208,3.224 -2.425,-1.191 -6.929,8.843 -22.194,-4.627 -1.832,-1.921 -9.605,5.879 -19.244,-11.913 -1.063,-2.433 -11.018,2.244 -14.043,-17.791 -0.138,-2.618 -12.399,-1.876 v 31.275 H -1255.36 V 61.714 h 46.207 v -131.62 h 57.991 v 131.62 h 40.564 l 0.563,-1.963 -9.872,-5.517 0.677,-22.553 1.618,-2.156 -7.534,-8.3 8.421,-21.085 2.15,-1.437 -4.024,-10.545 15.014,-16.843 2.729,-0.67 -0.581,-11.135 20.099,-10.808 2.607,0.313 3.609,-10.673 22.325,-3.242 2.455,1.19 6.93,-8.831 22.184,4.603 1.8,1.887 9.758,-5.772 19.098,11.826 1.069,2.395 11.154,-2.046 13.882,17.593 0.19,2.712 11.144,1.663 7.092,21.506 -0.746,2.443 11.973,6.691 0.335,-1 c 4.548,-13.575 12.306,-25.778 23.055,-36.275 18.499,-18.065 41.53,-27.224 68.449,-27.224 26.918,0 49.947,9.159 68.449,27.224 9.602,9.377 16.84,20.172 21.514,32.088 l 1.691,-0.32 v -57.359 h 127.535 v 28.091 l 1.451,-1.262 c 21.879,-19.041 46.739,-28.694 73.89,-28.694 20.392,0 37.277,5.429 50.181,16.138 13.505,11.206 20.353,25.975 20.353,43.896 0,17.762 -5.534,31.702 -16.448,41.429 -9.846,8.767 -23.523,15.353 -40.652,19.574 -19.882,4.89 -25.165,7.718 -26.31,8.468 -1.322,0.865 -1.536,1.384 -1.536,2.289 0,1.704 0.443,2.38 1.313,3.099 1.482,1.217 4.074,1.86 7.498,1.86 12.611,0 25.178,-4.679 37.351,-13.91 l 8.977,-6.804 20.733,29.919 0.366,-2.107 c 0.342,-1.979 0.799,-3.963 1.396,-6.065 l 1.052,-3.779 3.464,-2.015 c 1.152,-0.662 2.409,-1.547 3.739,-2.485 4.114,-2.899 9.188,-6.476 17.257,-8.293 4.066,-0.824 8.146,-0.942 11.745,-1.047 1.247,-0.037 2.775,-0.082 4.23,-0.178 l 1.117,-0.074 -0.59,-1.848 c -4.139,-12.983 -8.419,-26.408 -8.546,-44.273 l -0.004,-0.454 -0.374,-0.258 c -1.554,-1.073 -2.877,-2.478 -3.822,-4.067 l -0.157,-0.264 -0.287,-0.107 c -5.227,-1.965 -8.694,-6.905 -8.626,-12.294 -0.002,-0.262 0.003,-0.512 0.015,-0.768 -0.012,-0.315 -0.019,-0.534 -0.02,-0.739 -0.093,-4.107 1.887,-8.059 5.164,-10.327 l 0.383,-0.264 -0.007,-0.969 c 0,-7.233 0.773,-15.16 1.454,-22.154 l 0.677,-7.519 2.492,-2.537 c 7.962,-8.016 19.952,-9.161 31.72,-9.208 3.786,0 7.616,0.134 11.322,0.263 l 0.186,0.007 c 3.716,0.13 7.226,0.255 10.691,0.255 2.698,0 4.854,-0.072 6.782,-0.229 l 6.611,-0.503 2.895,5.919 c 4.419,9.007 6.663,19.735 6.67,31.885 -0.005,8.831 -1.144,18.334 -3.484,29.05 l -1.9,8.524 -8.649,-0.945 c -0.823,-0.093 -1.615,-0.133 -2.644,-0.133 -1.418,0 -2.804,0.122 -4.446,0.303 l -0.935,0.103 0.168,0.925 c 1.122,6.159 2.167,12.253 2.634,19.082 l 0.048,0.7 1.676,0.247 c 3.167,0.451 7.109,1.011 10.904,3.307 l 5.27,3.352 -0.761,6.111 c -0.076,0.63 -0.089,0.995 -0.089,1.14 0.011,1.328 0.238,1.53 2.415,3.465 l 0.429,0.369 c 1.919,1.659 4.547,3.931 6.543,7.257 l 0.197,0.327 0.373,0.079 c 4.353,0.925 8.212,2.945 11.793,6.173 l 0.219,0.196 0.291,0.025 c 0.647,0.057 1.393,0.085 2.277,0.085 2.572,0 5.682,-0.297 8.974,-0.611 3.939,-0.376 8.375,-0.801 12.892,-0.804 3.079,0 5.881,0.195 8.563,0.596 5.063,0.836 9.047,2.687 12.251,4.174 3.194,1.488 4.086,1.793 4.552,1.817 l 0.034,0.002 0.144,-0.003 3.855,-0.344 -0.462,-1.101 c -4.818,-11.48 -7.26,-24.149 -7.26,-37.659 0,-26.863 9.418,-49.68 27.99,-67.815 18.5,-18.065 41.528,-27.224 68.449,-27.224 26.918,0 49.947,9.159 68.449,27.224 10.324,10.083 17.901,21.783 22.52,34.777 l 1.7,-0.293 v -60.075 h 57.99 v 45.507 h 10.912 c 26.496,0 46.853,5.5 60.505,16.347 14.398,11.443 21.699,29.164 21.699,52.673 0,23.362 -7.049,41.204 -20.954,53.027"
             style="fill:#ffffff;fill-opacity:1;fill-rule:nonzero;stroke:none"
             id="path82" /></g><g
           id="g84"
           transform="translate(1352.7856,307.0788)"><path
             d="m 0,0 c -0.78,-0.875 -4.284,-3.726 -16.671,-3.726 h -13.71 v 33.257 h 9.978 c 12.674,0 18.163,-2.51 20.307,-4.007 h 0.002 C 1.58,24.352 3.809,21.912 3.809,14.302 3.809,7.753 2.491,2.808 0,0 m 5.793,33.958 c -5.568,3.887 -14.382,5.858 -26.196,5.858 h -18.234 -2.029 v -2.029 -49.768 -2.03 h 2.029 21.967 c 11.925,0 20.12,2.415 24.359,7.18 4.25,4.786 6.406,11.896 6.406,21.133 0,9.322 -2.715,15.751 -8.302,19.656"
             style="fill:#ffffff;fill-opacity:1;fill-rule:nonzero;stroke:none"
             id="path86" /></g></g></g></g></svg>
